<?xml version="1.0" encoding="UTF-8"?><svg id="_レイヤー_2" xmlns="http://www.w3.org/2000/svg" viewBox="0 0 1033.5 126"><defs><style>.cls-1{fill-rule:evenodd;}</style></defs><g id="Layer_1"><rect y="63" width="24" height="63"/><rect x="24" width="24" height="63"/><rect x="48" y="63" width="24" height="63"/><rect x="72" width="24" height="63"/><rect x="96" y="63" width="24" height="63"/><rect x="120" width="24" height="63"/><path class="cls-1" d="M444.3,3.45l35.01,92.64c.38.97.7,1.29,1.78,1.29s1.4-.48,1.78-1.29L519.54,3.45h30.27l-41.64,105.03c-2.15,5.38-5.49,10.24-10.61,13.14-5.01,2.86-10.83,3.77-16.48,3.77s-11.15-.97-16.16-3.5c-5.55-2.8-8.99-7.81-11.15-13.52L414.3,3.45h30Z"/><path class="cls-1" d="M827.29,3.44v79.8c0,3.66.7,7.59,3.29,10.29,2.75,2.85,7.65,3.34,11.36,3.34h19.93c3.72,0,8.35-.54,11.1-3.34,2.64-2.69,3.34-6.62,3.34-10.29V3.44h27.2v81.3c0,10.77-2.42,21.76-10.34,29.57-7.97,7.81-19.17,10.07-30,10.07h-23.54c-26.07,0-40.18-13.41-40.18-39.64V3.44h27.85Z"/><path class="cls-1" d="M722.4,92.45c1.56,1.51,3.55,2.48,5.6,3.18,3.02,1.02,6.57,1.24,9.75,1.24h47.45v27.52h-48.64c-6.79,0-13.9-.75-20.36-3.12-5.38-1.99-10.34-4.9-14.33-9.05-3.77-3.93-6.52-8.51-8.13-13.73-1.72-5.38-2.42-11.04-2.42-16.7V3.44h27.47v78.13c0,2.21.27,4.37.91,6.41.54,1.73,1.4,3.23,2.69,4.47h0Z"/><rect x="362.37" y="3.44" width="27.52" height="120.95"/><path class="cls-1" d="M230.55,124.39h-30.11l41.47-104.97c2.15-5.44,5.44-10.29,10.61-13.2,5.01-2.86,10.93-3.77,16.64-3.77s11.47.92,16.48,3.77c5.12,2.91,8.4,7.81,10.45,13.25l39.86,104.92h-30.22l-34.96-92.64c-.38-.97-.75-1.29-1.78-1.29-1.13,0-1.56.43-1.99,1.29l-36.46,92.64Z"/><path class="cls-1" d="M571.55,124.39h-30.11l41.47-104.97c2.15-5.44,5.44-10.29,10.61-13.2,5.01-2.86,10.93-3.77,16.64-3.77s11.47.92,16.48,3.77c5.12,2.91,8.4,7.81,10.45,13.25l39.86,104.92h-30.22l-34.96-92.64c-.38-.97-.75-1.29-1.78-1.29-1.13,0-1.56.43-1.99,1.29l-36.46,92.64Z"/><path class="cls-1" d="M956.27,74.27h76.59v-11.5h-104.11v18.02c0,5.66.76,11.31,2.48,16.7,1.61,5.23,4.31,9.86,8.13,13.73,3.99,4.15,8.94,7.05,14.33,9.05,6.46,2.37,13.52,3.12,20.36,3.12h59.46v-27.52h-58.11c-3.23,0-6.79-.22-9.86-1.29-2.05-.65-4.09-1.62-5.66-3.12-1.24-1.24-2.15-2.64-2.69-4.31-.65-2.05-.92-4.09-.92-6.19v-6.68Z"/><path class="cls-1" d="M956.27,46.31c0-2.1.27-4.15.92-6.19.54-1.67,1.45-3.07,2.69-4.31,1.56-1.51,3.61-2.48,5.66-3.12,3.07-1.08,6.62-1.29,9.86-1.29h58.11V3.87h-59.46c-6.84,0-13.9.75-20.36,3.12-5.39,1.99-10.34,4.9-14.33,9.05-3.82,3.88-6.52,8.51-8.13,13.73-1.72,5.38-2.48,11.04-2.48,16.7v18.02h104.11v-11.5h-76.59v-6.68Z"/></g></svg>